<svg id="Layer_1" fill="#004aad" enable-background="new 0 0 32 32" viewBox="0 0 32 32" xmlns="http://www.w3.org/2000/svg"><path d="m23 16c0-.33-.163-.639-.436-.825l-19-13c-.38-.262-.89-.227-1.233.082-.343.307-.431.811-.212 1.217l6.745 12.526-6.745 12.526c-.219.405-.131.909.212 1.217.19.17.429.257.669.257.196 0 .394-.058.564-.175l19-13c.273-.186.436-.495.436-.825zm-17.169 9.852 5.05-9.378c.159-.296.159-.651 0-.947l-5.05-9.378 14.398 9.851z"/><path d="m29.564 15.175-19-13-1.129 1.65 17.794 12.175-17.793 12.175 1.129 1.65 19-13c.272-.186.435-.495.435-.825s-.163-.639-.436-.825z"/></svg>